<svg width="32" height="32" viewBox="0 0 32 32" fill="none" xmlns="http://www.w3.org/2000/svg">
<path d="M24.2005 12.1933L23.8005 24.3003C23.7664 25.3372 23.3296 26.32 22.5828 27.0401C21.836 27.7602 20.838 28.161 19.8005 28.1573H12.2005C11.1637 28.161 10.1663 27.7608 9.41956 27.0415C8.67285 26.3223 8.23561 25.3405 8.20052 24.3043L7.80052 12.1933C7.79176 11.9281 7.88873 11.6702 8.07007 11.4765C8.25142 11.2828 8.5023 11.169 8.76752 11.1603C9.03273 11.1515 9.29056 11.2485 9.48429 11.4298C9.67801 11.6112 9.79176 11.8621 9.80052 12.1273L10.2005 24.2373C10.2204 24.7542 10.4399 25.2434 10.8128 25.602C11.1858 25.9605 11.6832 26.1607 12.2005 26.1603H19.8005C20.3185 26.1606 20.8165 25.96 21.1895 25.6005C21.5626 25.2411 21.7816 24.751 21.8005 24.2333L22.2005 12.1273C22.2093 11.8621 22.323 11.6112 22.5167 11.4298C22.7105 11.2485 22.9683 11.1515 23.2335 11.1603C23.4987 11.169 23.7496 11.2828 23.931 11.4765C24.1123 11.6702 24.2093 11.9281 24.2005 12.1933ZM25.5235 8.16427C25.5235 8.42949 25.4182 8.68385 25.2306 8.87138C25.0431 9.05892 24.7887 9.16427 24.5235 9.16427H7.47852C7.2133 9.16427 6.95894 9.05892 6.77141 8.87138C6.58387 8.68385 6.47852 8.42949 6.47852 8.16427C6.47852 7.89906 6.58387 7.64471 6.77141 7.45717C6.95894 7.26963 7.2133 7.16428 7.47852 7.16428H10.5785C10.8954 7.16513 11.2012 7.04807 11.4365 6.83587C11.6718 6.62368 11.8197 6.33153 11.8515 6.01628C11.9253 5.27676 12.2718 4.59121 12.8234 4.09318C13.375 3.59516 14.0923 3.32034 14.8355 3.32228H17.1655C17.9087 3.32034 18.626 3.59516 19.1776 4.09318C19.7293 4.59121 20.0757 5.27676 20.1495 6.01628C20.1813 6.33153 20.3292 6.62368 20.5645 6.83587C20.7998 7.04807 21.1057 7.16513 21.4225 7.16428H24.5225C24.7877 7.16428 25.0421 7.26963 25.2296 7.45717C25.4172 7.64471 25.5225 7.89906 25.5225 8.16427H25.5235ZM13.5875 7.16428H18.4155C18.2841 6.86402 18.1982 6.54586 18.1605 6.22028C18.1357 5.97378 18.0204 5.74526 17.8367 5.57899C17.6531 5.41271 17.4142 5.32052 17.1665 5.32028H14.8365C14.5888 5.32052 14.35 5.41271 14.1663 5.57899C13.9827 5.74526 13.8673 5.97378 13.8425 6.22028C13.8045 6.54591 13.7193 6.86407 13.5875 7.16428ZM14.5945 22.3153V13.8003C14.5945 13.5351 14.4892 13.2807 14.3016 13.0932C14.1141 12.9056 13.8597 12.8003 13.5945 12.8003C13.3293 12.8003 13.0749 12.9056 12.8874 13.0932C12.6999 13.2807 12.5945 13.5351 12.5945 13.8003V22.3193C12.5945 22.5845 12.6999 22.8388 12.8874 23.0264C13.0749 23.2139 13.3293 23.3193 13.5945 23.3193C13.8597 23.3193 14.1141 23.2139 14.3016 23.0264C14.4892 22.8388 14.5945 22.5845 14.5945 22.3193V22.3153ZM19.4085 22.3153V13.8003C19.4085 13.5351 19.3032 13.2807 19.1156 13.0932C18.9281 12.9056 18.6737 12.8003 18.4085 12.8003C18.1433 12.8003 17.8889 12.9056 17.7014 13.0932C17.5139 13.2807 17.4085 13.5351 17.4085 13.8003V22.3193C17.4085 22.5845 17.5139 22.8388 17.7014 23.0264C17.8889 23.2139 18.1433 23.3193 18.4085 23.3193C18.6737 23.3193 18.9281 23.2139 19.1156 23.0264C19.3032 22.8388 19.4085 22.5845 19.4085 22.3193V22.3153Z" fill="#FF0000"/>
</svg>
