<svg width="800" height="800" viewBox="0 0 800 800" fill="none" xmlns="http://www.w3.org/2000/svg">
<path d="M103.219 176.787C126.451 154.445 158.073 145.341 206.241 141.632L256.439 139.496C278.703 139.081 303.658 139.081 331.737 139.081H465.601C493.677 139.081 518.634 139.081 540.897 139.496L591.097 141.632C639.264 145.341 670.887 154.445 694.117 176.787C717.351 199.129 726.817 229.539 730.674 275.862L733.331 300H97.4827H66.6641V275.862C70.5211 229.539 79.9874 199.129 103.219 176.787Z" fill="#EEA64A"/>
<path d="M733.319 466.67V400.003C733.319 372.033 733.212 322.176 732.782 300H66.9743C66.544 322.176 66.6529 372.033 66.6529 400.003V466.67C66.6529 592.377 66.6529 655.23 105.705 694.283C144.758 733.337 207.612 733.337 333.32 733.337H466.652C592.362 733.337 655.215 733.337 694.269 694.283C733.319 655.23 733.319 592.377 733.319 466.67Z" fill="white"/>
<path d="M600.003 566.667C600.003 585.077 585.079 600 566.669 600C548.259 600 533.336 585.077 533.336 566.667C533.336 548.257 548.259 533.333 566.669 533.333C585.079 533.333 600.003 548.257 600.003 566.667Z" fill="#EEA64A"/>
<path d="M600.003 433.333C600.003 451.743 585.079 466.667 566.669 466.667C548.259 466.667 533.336 451.743 533.336 433.333C533.336 414.923 548.259 400 566.669 400C585.079 400 600.003 414.923 600.003 433.333Z" fill="#EEA64A"/>
<path d="M433.331 566.667C433.331 585.077 418.407 600 399.997 600C381.587 600 366.664 585.077 366.664 566.667C366.664 548.257 381.587 533.333 399.997 533.333C418.407 533.333 433.331 548.257 433.331 566.667Z" fill="#EEA64A"/>
<path d="M433.331 433.333C433.331 451.743 418.407 466.667 399.997 466.667C381.587 466.667 366.664 451.743 366.664 433.333C366.664 414.923 381.587 400 399.997 400C418.407 400 433.331 414.923 433.331 433.333Z" fill="#EEA64A"/>
<path d="M266.667 566.667C266.667 585.077 251.743 600 233.333 600C214.924 600 200 585.077 200 566.667C200 548.257 214.924 533.333 233.333 533.333C251.743 533.333 266.667 548.257 266.667 566.667Z" fill="#EEA64A"/>
<path d="M266.667 433.333C266.667 451.743 251.743 466.667 233.333 466.667C214.924 466.667 200 451.743 200 433.333C200 414.923 214.924 400 233.333 400C251.743 400 266.667 414.923 266.667 433.333Z" fill="#EEA64A"/>
<path d="M175 99C175 82.9837 187.984 70 204 70H210C226.016 70 239 82.9837 239 99V216C239 232.016 226.016 245 210 245H204C187.984 245 175 232.016 175 216V99Z" fill="#1D1616"/>
<path d="M240 216C240 232.569 226.569 246 210 246H204C187.431 246 174 232.569 174 216H176C176 231.464 188.536 244 204 244H210C225.464 244 238 231.464 238 216H240ZM204 246C187.431 246 174 232.569 174 216V100C174 83.4315 187.431 70 204 70C188.536 70 176 82.9837 176 99V216C176 231.464 188.536 244 204 244V246ZM210 70C226.569 70 240 83.4315 240 100V216C240 232.569 226.569 246 210 246V244C225.464 244 238 231.464 238 216V99C238 82.9837 225.464 70 210 70Z" fill="white"/>
<path d="M564 99C564 82.9837 576.984 70 593 70H599C615.016 70 628 82.9837 628 99V216C628 232.016 615.016 245 599 245H593C576.984 245 564 232.016 564 216V99Z" fill="#1D1616"/>
<path d="M629 216C629 232.569 615.569 246 599 246H593C576.431 246 563 232.569 563 216H565C565 231.464 577.536 244 593 244H599C614.464 244 627 231.464 627 216H629ZM593 246C576.431 246 563 232.569 563 216V100C563 83.4315 576.431 70 593 70C577.536 70 565 82.9837 565 99V216C565 231.464 577.536 244 593 244V246ZM599 70C615.569 70 629 83.4315 629 100V216C629 232.569 615.569 246 599 246V244C614.464 244 627 231.464 627 216V99C627 82.9837 614.464 70 599 70Z" fill="white"/>
</svg>
