<svg width="1140" height="1109" viewBox="0 0 1140 1109" fill="none" xmlns="http://www.w3.org/2000/svg">
<path d="M295.999 176.786C315.804 154.444 342.762 145.34 383.825 141.631L426.619 139.495C445.599 139.08 466.874 139.08 490.811 139.08H604.929C628.865 139.08 650.14 139.08 669.12 139.495L711.915 141.631C752.977 145.34 779.936 154.444 799.74 176.786C819.546 199.128 827.617 229.538 830.904 275.862L833.169 300H291.109H264.836V275.862C268.124 229.538 276.194 199.128 295.999 176.786Z" fill="url(#paint0_linear_184_158)"/>
<rect x="360.5" y="87.5" width="78" height="125" rx="36" fill="#1D1616" stroke="white" stroke-width="16" stroke-miterlimit="1.9416"/>
<rect x="684" y="91" width="78" height="125" rx="36" fill="#1D1616" stroke="white" stroke-width="16" stroke-miterlimit="1.9416"/>
<rect x="326.5" y="336" width="52" height="44" rx="17" fill="#D9D9D9"/>
<rect x="412" y="336" width="52" height="44" rx="17" fill="#D9D9D9"/>
<rect x="595" y="336" width="52" height="44" rx="17" fill="#D9D9D9"/>
<rect x="504" y="483" width="52" height="44" rx="17" fill="#D9D9D9"/>
<path d="M603.374 782C579.373 782 556.674 774.263 542.081 760.993L345 581.655C352.91 581.655 336.406 510.5 381.906 504C427.406 497.5 456.906 512 467.608 517.708L597.231 635.646C708.018 442.591 792.491 378.426 923.24 274.962C945.685 250.148 993.081 242.556 1029.17 257.999C1065.22 273.458 1076.22 306.138 1053.77 330.975C887.586 432.661 794.83 508.605 668.649 757.034C655.27 771.846 632.173 781.164 606.882 781.954C605.701 781.985 604.543 782 603.374 782Z" fill="url(#paint1_linear_184_158)"/>
<path d="M257.998 250.499C245.408 258.044 233.429 266.749 222.166 276.481C119.973 365.843 86.0033 524.132 132.367 656.152C175.389 793.431 325.032 877.626 456.951 864.594C471.921 863.803 485.962 862.249 500.99 859.999C485.829 858.985 471.923 857.426 457.381 855.294C327.26 839.148 216.738 756.874 178.578 639.857C139.221 525.158 150.862 386.865 228.919 282.89C237.72 271.482 247.389 260.643 257.998 250.499Z" fill="#F47B3D"/>
<path d="M102.499 645.5C106.703 663.862 111.185 680.673 116.826 698.18C153.383 821.481 254.725 942.618 397.755 962.236C537.729 983.499 678.381 921.011 773.807 822.147C822.854 771.482 856.16 704.6 864.035 635.435C866.23 616.542 866.544 597.672 864.993 579C856.996 595.944 848.42 611.927 839.357 627.333C806.123 683.486 767.397 730.97 725.021 775.129C642.043 861.001 523.383 918.66 404.113 909.667C283.456 902.805 180.123 810.813 124.737 694.953C116.646 678.728 109.512 662.983 102.499 645.5Z" fill="url(#paint2_linear_184_158)"/>
<path d="M895.517 500.946C926.583 490.845 957.648 480.744 988.714 470.643C993.532 489.747 996.984 507.866 999.577 527.313C1014.63 634.76 986.572 745.54 927.83 832.553C913.558 854.07 897.479 874.288 880.002 893.033C854.866 919.99 824.535 941.26 793.673 960.121C655.107 1045.63 470.206 1064.15 336.091 978.472C321.341 969.136 307.653 958.914 294.496 947.499C308.894 957.304 323.583 965.725 339.049 973.127C479.698 1040.43 646.116 999.068 759.049 909.9C784.257 890.102 806.014 866.808 827.34 843.934C842.233 827.961 855.839 810.832 867.83 792.753C917.391 719.304 933.397 626.993 910.427 544.287C906.418 529.246 901.579 515.414 895.517 500.946Z" fill="url(#paint3_linear_184_158)"/>
<rect x="501" y="336" width="52" height="44" rx="17" fill="#D9D9D9"/>
<rect x="693" y="336" width="52" height="44" rx="17" fill="#D9D9D9"/>
<rect x="501" y="415" width="52" height="44" rx="17" fill="#D9D9D9"/>
<rect x="590" y="415" width="52" height="44" rx="17" fill="#D9D9D9"/>
<rect x="412" y="415" width="52" height="44" rx="17" fill="#D9D9D9"/>
<rect x="329" y="415" width="52" height="44" rx="17" fill="#D9D9D9"/>
<rect x="590" y="479" width="52" height="44" rx="17" fill="#D9D9D9"/>
<defs>
<linearGradient id="paint0_linear_184_158" x1="264.836" y1="219.54" x2="833.169" y2="219.54" gradientUnits="userSpaceOnUse">
<stop stop-color="#F26347"/>
<stop offset="1" stop-color="#F09532"/>
</linearGradient>
<linearGradient id="paint1_linear_184_158" x1="697.406" y1="250" x2="697.406" y2="782" gradientUnits="userSpaceOnUse">
<stop stop-color="#F29434"/>
<stop offset="0.740385" stop-color="#F36149"/>
</linearGradient>
<linearGradient id="paint2_linear_184_158" x1="651.405" y1="420.87" x2="292.164" y2="906.102" gradientUnits="userSpaceOnUse">
<stop stop-color="#F25B52"/>
<stop offset="1" stop-color="#F2803E"/>
</linearGradient>
<linearGradient id="paint3_linear_184_158" x1="571.901" y1="1043.12" x2="711.252" y2="433.06" gradientUnits="userSpaceOnUse">
<stop offset="0.0288462" stop-color="#F35C51"/>
<stop offset="1" stop-color="#F38939"/>
</linearGradient>
</defs>
</svg>
