<svg width="512" height="512" viewBox="0 0 512 512" fill="none" xmlns="http://www.w3.org/2000/svg">
<path d="M335.05 139.201C335.05 143.601 334.75 148.001 334.2 152.351C334.45 150.601 334.7 148.801 334.9 147.051C333.7 155.751 331.4 164.201 328.05 172.301C328.7 170.701 329.4 169.101 330.05 167.501C326.7 175.401 322.4 182.801 317.15 189.601L320.3 185.551C315.1 192.251 309.05 198.301 302.35 203.501L306.4 200.351C299.6 205.551 292.2 209.901 284.3 213.251C285.9 212.601 287.5 211.901 289.1 211.251C281 214.601 272.55 216.901 263.85 218.101C265.6 217.851 267.4 217.601 269.15 217.401C260.4 218.551 251.6 218.551 242.85 217.401C244.6 217.651 246.4 217.901 248.15 218.101C239.45 216.901 231 214.601 222.9 211.251C224.5 211.901 226.1 212.601 227.7 213.251C219.8 209.901 212.4 205.601 205.6 200.351L209.65 203.501C202.95 198.301 196.9 192.251 191.7 185.551L194.85 189.601C189.65 182.801 185.3 175.401 181.95 167.501C182.6 169.101 183.3 170.701 183.95 172.301C180.6 164.201 178.3 155.751 177.1 147.051C177.35 148.801 177.6 150.601 177.8 152.351C176.65 143.601 176.65 134.801 177.8 126.051C177.55 127.801 177.3 129.601 177.1 131.351C178.3 122.651 180.6 114.201 183.95 106.101C183.3 107.701 182.6 109.301 181.95 110.901C185.3 103.001 189.6 95.6007 194.85 88.8007L191.7 92.8507C196.9 86.1507 202.95 80.1007 209.65 74.9007L205.6 78.0507C212.4 72.8507 219.8 68.5007 227.7 65.1507C226.1 65.8007 224.5 66.5007 222.9 67.1507C231 63.8007 239.45 61.5007 248.15 60.3007C246.4 60.5507 244.6 60.8007 242.85 61.0007C251.6 59.8507 260.4 59.8507 269.15 61.0007C267.4 60.7507 265.6 60.5007 263.85 60.3007C272.55 61.5007 281 63.8007 289.1 67.1507C287.5 66.5007 285.9 65.8007 284.3 65.1507C292.2 68.5007 299.6 72.8007 306.4 78.0507L302.35 74.9007C309.05 80.1007 315.1 86.1507 320.3 92.8507L317.15 88.8007C322.35 95.6007 326.7 103.001 330.05 110.901C329.4 109.301 328.7 107.701 328.05 106.101C331.4 114.201 333.7 122.651 334.9 131.351C334.65 129.601 334.4 127.801 334.2 126.051C334.75 130.401 335 134.801 335.05 139.201C335.1 149.651 344.2 159.701 355.05 159.201C365.85 158.701 375.1 150.401 375.05 139.201C374.95 115.251 367.75 90.7507 353.65 71.2507C349.85 66.0007 345.8 60.8507 341.3 56.2007C336.75 51.5007 331.75 47.4507 326.55 43.5007C317.1 36.3007 306.55 31.0007 295.35 26.9007C250.2 10.3507 195.75 25.1007 165.2 62.3007C161 67.4007 157 72.7007 153.6 78.4007C150.2 84.0507 147.55 90.0507 145.1 96.1507C140.5 107.451 138.15 119.451 137.2 131.601C135.35 155.401 141.55 180.251 153.95 200.651C165.9 220.351 183.95 237.251 205.05 246.801C211.25 249.601 217.6 252.201 224.2 254.051C230.75 255.851 237.4 256.851 244.15 257.651C256.45 259.101 269 258.101 281.15 255.651C327.3 246.251 365.95 206.501 373.1 159.851C374.15 153.051 374.95 146.251 374.95 139.351C375 128.901 365.7 118.851 354.95 119.351C344.15 119.701 335.05 128.001 335.05 139.201ZM401.4 451.851H144.85C133.5 451.851 122.15 451.951 110.8 451.851C109.55 451.851 108.3 451.751 107.1 451.601C108.85 451.851 110.65 452.101 112.4 452.301C110.4 452.001 108.5 451.451 106.65 450.701C108.25 451.351 109.85 452.051 111.45 452.701C109.45 451.851 107.6 450.751 105.85 449.401L109.9 452.551C108.4 451.301 107 449.951 105.8 448.451L108.95 452.501C107.6 450.751 106.55 448.901 105.65 446.901C106.3 448.501 107 450.101 107.65 451.701C106.9 449.851 106.4 447.901 106.05 445.951C106.3 447.701 106.55 449.501 106.75 451.251C105.95 445.201 106.5 438.801 106.5 432.701V411.301C106.5 405.951 106.8 400.651 107.5 395.351C107.25 397.101 107 398.901 106.8 400.651C108.2 390.401 110.9 380.351 114.95 370.801C114.3 372.401 113.6 374.001 112.95 375.601C116.85 366.501 121.85 357.951 127.9 350.101L124.75 354.151C130.8 346.401 137.75 339.401 145.55 333.351L141.5 336.501C149.35 330.451 157.9 325.451 167 321.551C165.4 322.201 163.8 322.901 162.2 323.551C171.75 319.551 181.75 316.801 192.05 315.401C190.3 315.651 188.5 315.901 186.75 316.101C194.15 315.151 201.5 315.101 208.95 315.101H300.45C308.7 315.101 316.9 315.051 325.15 316.101C323.4 315.851 321.6 315.601 319.85 315.401C330.1 316.801 340.15 319.501 349.7 323.551C348.1 322.901 346.5 322.201 344.9 321.551C354 325.451 362.55 330.451 370.4 336.501L366.35 333.351C374.1 339.401 381.1 346.351 387.15 354.151L384 350.101C390.05 357.951 395.05 366.501 398.95 375.601C398.3 374.001 397.6 372.401 396.95 370.801C400.95 380.351 403.7 390.351 405.1 400.651C404.85 398.901 404.6 397.101 404.4 395.351C405.35 402.901 405.4 410.401 405.4 418.001V442.751C405.4 445.601 405.5 448.451 405.15 451.251C405.4 449.501 405.65 447.701 405.85 445.951C405.55 447.951 405 449.851 404.25 451.701C404.9 450.101 405.6 448.501 406.25 446.901C405.4 448.901 404.3 450.751 402.95 452.501L406.1 448.451C404.85 449.951 403.5 451.351 402 452.551L406.05 449.401C404.3 450.751 402.45 451.801 400.45 452.701C402.05 452.051 403.65 451.351 405.25 450.701C403.4 451.451 401.45 451.951 399.5 452.301C401.25 452.051 403.05 451.801 404.8 451.601C403.7 451.751 402.55 451.801 401.4 451.851C396.25 451.901 390.95 454.051 387.25 457.701C383.8 461.151 381.15 466.851 381.4 471.851C381.9 482.551 390.2 492.001 401.4 491.851C420.85 491.551 437.95 478.851 443.65 460.201C445.9 452.801 445.4 444.851 445.4 437.251C445.4 419.851 445.95 402.601 442.95 385.351C438.55 360.101 425.85 336.351 408.45 317.701C391.05 299.051 367.65 285.351 342.9 279.251C328.7 275.751 314.4 275.201 299.9 275.201H211.2C196.35 275.201 181.6 275.901 167.15 279.751C142.6 286.251 119.5 300.101 102.45 318.901C85.2498 337.851 72.7998 361.651 68.7498 387.051C66.0498 404.101 66.5998 421.201 66.5998 438.401C66.5998 446.301 66.1498 454.551 68.9998 462.101C72.6998 471.801 78.5998 479.451 87.2498 485.201C93.9998 489.651 102.55 491.801 110.55 491.901C114.45 491.951 118.35 491.901 122.25 491.901H401.45C411.9 491.901 421.95 482.701 421.45 471.901C420.95 461.001 412.65 451.851 401.4 451.851Z" fill="black"/>
</svg>
